<svg xmlns="http://www.w3.org/2000/svg" xmlns:xlink="http://www.w3.org/1999/xlink" width="155" height="50" viewBox="0 0 155 50">
  <defs>
    <clipPath id="clip-path">
      <rect id="_1_Logo_B" data-name="1_Logo_B" width="155" height="50" transform="translate(50 25)" fill="#246fb2"/>
    </clipPath>
  </defs>
  <g id="header-logo" transform="translate(-50 -25)" clip-path="url(#clip-path)">
    <g id="SA25_Logo_BH" transform="translate(29.993 -47.503)">
      <g id="Isolation_Mode">
        <g id="Group_27" data-name="Group 27">
          <path id="Path_1" data-name="Path 1" d="M34.011,89.441c7.476-5.55,15.939-8.325,20.526-7.178-6.376-6.765-17.223-7.889-25.525-2.225-8.256,5.619-11.169,16.008-7.339,24.4C22.177,100.427,26.58,94.969,34.011,89.441Z"/>
          <path id="Path_2" data-name="Path 2" d="M41.533,102.582c-5.917,3.027-11.077,3.83-12.568,1.605-1.9-2.821,2.844-9.426,10.6-14.769,6.582-4.518,13.187-6.674,16.214-5.5a2.363,2.363,0,0,1,.6.573h0c-.046-.069-.092-.115-.115-.161-2.5-2.958-12.224-1.1-21.649,5.894-9.013,6.7-13.577,13.37-11.49,16.765a2.548,2.548,0,0,1-.161-.367.461.461,0,0,0,.092.183c2.018,2.958,10.045,1.055,18.485-4.2Z"/>
          <path id="Path_3" data-name="Path 3" d="M25.548,110.747l.069.069a.317.317,0,0,1-.069-.092h0Z"/>
          <path id="Path_4" data-name="Path 4" d="M25.342,110.54a.9.9,0,0,0,.183.229h0c-.069-.092-.138-.161-.183-.229Z"/>
          <path id="Path_5" data-name="Path 5" d="M47.129,104.853c9.013-6.7,13.6-13.416,11.467-16.787a2.548,2.548,0,0,1,.161.367.814.814,0,0,1-.092-.206c-2.018-2.958-10.045-1.055-18.485,4.2C46.1,89.4,51.257,88.616,52.748,90.818c1.9,2.821-2.821,9.426-10.572,14.769-6.582,4.518-13.21,6.674-16.237,5.5a1.849,1.849,0,0,1-.321-.275c2.5,2.89,12.155.963,21.512-5.986Z"/>
          <path id="Path_6" data-name="Path 6" d="M47.725,105.656c-7.591,5.642-15.893,8.417-20.434,7.247,6.4,6.651,17.154,7.729,25.433,2.11,8.233-5.619,11.146-15.985,7.362-24.333-.5,4.013-4.908,9.472-12.338,15Z"/>
          <path id="Path_7" data-name="Path 7" d="M77.654,85.91a4.166,4.166,0,0,1-1.307.183,2.319,2.319,0,0,1-1.9-.688,2.221,2.221,0,0,1-.413-1.124H71.851a3.207,3.207,0,0,0,1.238,2.683,5.36,5.36,0,0,0,3.371.986,4.808,4.808,0,0,0,3.257-.986,3.118,3.118,0,0,0,1.147-2.5,2.646,2.646,0,0,0-.986-2.247,5.182,5.182,0,0,0-1.881-.8l-1.881-.459A5.893,5.893,0,0,1,74.7,80.5a.937.937,0,0,1-.527-.871,1.171,1.171,0,0,1,.527-.986,2.553,2.553,0,0,1,1.422-.367,2.734,2.734,0,0,1,1.33.275,1.614,1.614,0,0,1,.871,1.4h2.2a3.23,3.23,0,0,0-1.284-2.66,5.417,5.417,0,0,0-6.1.046,3.182,3.182,0,0,0-1.078,2.454,2.766,2.766,0,0,0,1.1,2.362A7.757,7.757,0,0,0,75.521,83l1.17.252a5.027,5.027,0,0,1,1.491.5.952.952,0,0,1,.482.849,1.245,1.245,0,0,1-.963,1.261Z"/>
          <rect id="Rectangle_22" data-name="Rectangle 22" width="2.27" height="10.962" transform="translate(82.355 76.713)"/>
          <path id="Path_8" data-name="Path 8" d="M91.253,87.974a4.211,4.211,0,0,0,2.225-.55,5,5,0,0,0,1.193-1.1L94.9,87.7h1.514V81.827H91.85v1.835H94.4a2.82,2.82,0,0,1-.917,1.743,2.729,2.729,0,0,1-1.881.665,2.969,2.969,0,0,1-2.087-.849,3.707,3.707,0,0,1-.917-2.867,4.475,4.475,0,0,1,.849-3,2.741,2.741,0,0,1,2.179-1.009,2.05,2.05,0,0,1,1.261.252,2.137,2.137,0,0,1,1.261,1.559H96.39a3.969,3.969,0,0,0-1.445-2.637A5.05,5.05,0,0,0,91.6,76.461a5.338,5.338,0,0,0-3.876,1.605,6.067,6.067,0,0,0-1.468,4.266A5.752,5.752,0,0,0,87.7,86.483,4.61,4.61,0,0,0,91.276,88Z"/>
          <path id="Path_9" data-name="Path 9" d="M103.087,87.974a4.211,4.211,0,0,0,2.225-.55,5,5,0,0,0,1.193-1.1l.229,1.376h1.514V81.827h-4.564v1.835h2.546a2.82,2.82,0,0,1-.917,1.743,2.729,2.729,0,0,1-1.881.665,2.969,2.969,0,0,1-2.087-.849,3.707,3.707,0,0,1-.917-2.867,4.475,4.475,0,0,1,.849-3,2.741,2.741,0,0,1,2.179-1.009,2.05,2.05,0,0,1,1.261.252,2.137,2.137,0,0,1,1.261,1.559h2.248a3.969,3.969,0,0,0-1.445-2.637,5.05,5.05,0,0,0-3.348-1.055,5.338,5.338,0,0,0-3.876,1.605,6.067,6.067,0,0,0-1.468,4.266,5.752,5.752,0,0,0,1.445,4.151A4.61,4.61,0,0,0,103.11,88Z"/>
          <path id="Path_10" data-name="Path 10" d="M116.48,83.731a1.992,1.992,0,0,1,.39,1.4v1.009a4.221,4.221,0,0,0,.115.94c.023.138.069.344.138.6h2.523V87.4a.849.849,0,0,1-.413-.619,4.931,4.931,0,0,1-.069-1.009v-.734a3.691,3.691,0,0,0-.321-1.72,2.1,2.1,0,0,0-1.078-.871,2.283,2.283,0,0,0,1.307-1.078,3.394,3.394,0,0,0,.39-1.537,2.629,2.629,0,0,0-.206-1.147,2.943,2.943,0,0,0-.573-.917,2.643,2.643,0,0,0-1.055-.757,4.513,4.513,0,0,0-1.766-.275h-5.366V87.7h2.248V83.41H115.1a2.074,2.074,0,0,1,1.376.344Zm-3.738-5.114h2.66a2.775,2.775,0,0,1,1.124.183,1.36,1.36,0,0,1,.665,1.33,1.182,1.182,0,0,1-.688,1.238,2.949,2.949,0,0,1-1.17.183h-2.592Z"/>
          <path id="Path_11" data-name="Path 11" d="M123.819,85.428h4.036l.711,2.248h2.477l-3.876-10.962h-2.592l-3.922,10.962h2.385l.757-2.248Zm2.041-6.192,1.376,4.312h-2.775l1.422-4.312Z"/>
          <path id="Path_12" data-name="Path 12" d="M134.781,83.731H137.1a4.327,4.327,0,0,0,2.8-.8,3.321,3.321,0,0,0,.986-2.752,3.051,3.051,0,0,0-.986-2.614,3.879,3.879,0,0,0-2.637-.849h-4.77V87.676h2.27V83.731Zm0-5.114h2.133a1.882,1.882,0,0,1,1.261.367,1.491,1.491,0,0,1,.459,1.215,1.536,1.536,0,0,1-.436,1.238,1.928,1.928,0,0,1-1.261.39H134.8V78.594Z"/>
          <path id="Path_13" data-name="Path 13" d="M144.849,82.791h4.289v4.885h2.27V76.713h-2.27v4.2h-4.289v-4.2h-2.27V87.676h2.27Z"/>
          <path id="Path_14" data-name="Path 14" d="M78.709,91.918H75.865l-4.289,12.017h2.637l.826-2.477h4.426l.78,2.477h2.729L78.708,91.918Zm-2.981,7.476,1.559-4.724,1.491,4.724Z"/>
          <path id="Path_15" data-name="Path 15" d="M85.336,97.927a8.268,8.268,0,0,0,2.592.917l1.261.275a5.034,5.034,0,0,1,1.628.573,1.031,1.031,0,0,1,.527.917,1.387,1.387,0,0,1-1.055,1.4,4.194,4.194,0,0,1-1.445.206,2.093,2.093,0,0,1-2.546-1.972H83.892a3.608,3.608,0,0,0,1.353,2.958,5.8,5.8,0,0,0,3.692,1.078,5.268,5.268,0,0,0,3.555-1.078,3.433,3.433,0,0,0,1.261-2.729,2.929,2.929,0,0,0-1.078-2.454,5.116,5.116,0,0,0-2.064-.871l-2.064-.5a6.327,6.327,0,0,1-1.559-.5,1.011,1.011,0,0,1-.573-.963,1.3,1.3,0,0,1,.573-1.1,2.8,2.8,0,0,1,1.559-.39,2.92,2.92,0,0,1,1.468.3,1.707,1.707,0,0,1,.94,1.537h2.408a3.557,3.557,0,0,0-1.4-2.913A5.274,5.274,0,0,0,88.731,91.6a5.408,5.408,0,0,0-3.44,1.078,3.477,3.477,0,0,0-1.17,2.683,3.048,3.048,0,0,0,1.215,2.592Z"/>
          <rect id="Rectangle_23" data-name="Rectangle 23" width="2.5" height="12.017" transform="translate(95.45 91.918)"/>
          <path id="Path_16" data-name="Path 16" d="M103.729,91.918l-4.289,12.017h2.637l.826-2.477h4.426l.78,2.477h2.729l-4.266-12.017h-2.844Zm-.161,7.476,1.559-4.724,1.491,4.724Z"/>
          <path id="Path_17" data-name="Path 17" d="M118.521,99.12a6.406,6.406,0,0,0-2.339,2.5,5.552,5.552,0,0,0-.55,2.316h8.1v-2.041h-5.16a2.105,2.105,0,0,1,.55-.642c.206-.183.619-.482,1.193-.894l.94-.665a7.7,7.7,0,0,0,1.7-1.514,3.734,3.734,0,0,0,.78-2.339,4.045,4.045,0,0,0-1.1-2.752,4.209,4.209,0,0,0-2.981-1.032,3.781,3.781,0,0,0-3.3,1.766,5.855,5.855,0,0,0-.55,2.431h2.27a3.983,3.983,0,0,1,.252-1.445,1.44,1.44,0,0,1,1.445-.78,1.216,1.216,0,0,1,1.193.5,1.878,1.878,0,0,1,.413,1.238,2.745,2.745,0,0,1-.734,1.7,20.193,20.193,0,0,1-2.087,1.651Z"/>
          <path id="Path_18" data-name="Path 18" d="M128.979,92.033a3.322,3.322,0,0,0-3.165,1.582,9.3,9.3,0,0,0-.917,4.518,9.043,9.043,0,0,0,.917,4.518,3.956,3.956,0,0,0,6.33,0,11.719,11.719,0,0,0,.023-9.036A3.369,3.369,0,0,0,129,92.033Zm1.376,9.219A1.3,1.3,0,0,1,129,102.33a1.366,1.366,0,0,1-1.376-1.078,10.823,10.823,0,0,1-.344-3.119,11.071,11.071,0,0,1,.344-3.165A1.349,1.349,0,0,1,129,93.936a1.308,1.308,0,0,1,1.353,1.032,11.79,11.79,0,0,1,.321,3.165A11.521,11.521,0,0,1,130.355,101.252Z"/>
          <path id="Path_19" data-name="Path 19" d="M137.671,101.252c.206-.183.619-.482,1.193-.894l.94-.665a7.7,7.7,0,0,0,1.7-1.514,3.734,3.734,0,0,0,.78-2.339,4.045,4.045,0,0,0-1.1-2.752,4.209,4.209,0,0,0-2.981-1.032,3.781,3.781,0,0,0-3.3,1.766,5.855,5.855,0,0,0-.55,2.431h2.27a3.983,3.983,0,0,1,.252-1.445,1.44,1.44,0,0,1,1.445-.78,1.216,1.216,0,0,1,1.193.5,1.878,1.878,0,0,1,.413,1.238,2.745,2.745,0,0,1-.734,1.7A20.193,20.193,0,0,1,137.1,99.12a6.406,6.406,0,0,0-2.339,2.5,5.553,5.553,0,0,0-.55,2.316h8.1v-2.041h-5.16a2.105,2.105,0,0,1,.55-.642Z"/>
          <path id="Path_20" data-name="Path 20" d="M147.922,96.184a3.916,3.916,0,0,0-1.238.183,4.656,4.656,0,0,0-.849.459l.413-2.592h4.839V92.262h-6.513l-.826,6.536,2.087.092a1.525,1.525,0,0,1,.826-.734,2.347,2.347,0,0,1,.734-.115,1.526,1.526,0,0,1,1.33.619,2.693,2.693,0,0,1,.413,1.537,2.545,2.545,0,0,1-.459,1.537,1.5,1.5,0,0,1-1.307.6,1.427,1.427,0,0,1-1.147-.413,2.31,2.31,0,0,1-.527-1.17h-2.316a3.523,3.523,0,0,0,1.215,2.569,4.6,4.6,0,0,0,5.917-.39,4.441,4.441,0,0,0,1.055-2.936,3.89,3.89,0,0,0-1.1-2.867,3.681,3.681,0,0,0-2.569-.986Z"/>
          <path id="Path_21" data-name="Path 21" d="M77.676,112.536H74.007v-3.578H72.081v9.38h1.926v-4.174h3.669v4.174h1.949v-9.38H77.676Z"/>
          <path id="Path_22" data-name="Path 22" d="M88.731,109.784a4.84,4.84,0,0,0-6.146,0,5.993,5.993,0,0,0,0,7.752,4.84,4.84,0,0,0,6.146,0,5.993,5.993,0,0,0,0-7.752Zm-1.238,6.307a2.458,2.458,0,0,1-3.715,0,4.72,4.72,0,0,1,0-4.908,2.436,2.436,0,0,1,3.715.023,3.832,3.832,0,0,1,.688,2.431,3.9,3.9,0,0,1-.688,2.454Z"/>
          <path id="Path_23" data-name="Path 23" d="M97.4,115.517l-3.738-6.559H91.6v9.38h1.835v-6.651l3.83,6.651h1.949v-9.38H97.4Z"/>
          <path id="Path_24" data-name="Path 24" d="M105.4,114.875h2.179a2.423,2.423,0,0,1-.78,1.491,2.367,2.367,0,0,1-1.605.573,2.611,2.611,0,0,1-1.789-.711,3.216,3.216,0,0,1-.78-2.454,3.9,3.9,0,0,1,.734-2.569,2.306,2.306,0,0,1,1.858-.849,1.757,1.757,0,0,1,1.078.206,1.818,1.818,0,0,1,1.078,1.353H109.3a3.525,3.525,0,0,0-1.238-2.27,4.384,4.384,0,0,0-2.867-.917,4.592,4.592,0,0,0-3.325,1.376,5.256,5.256,0,0,0-1.261,3.646,4.933,4.933,0,0,0,1.238,3.555,3.937,3.937,0,0,0,3.05,1.284,2.566,2.566,0,0,0,1.9-.482,4.566,4.566,0,0,0,1.009-.94l.206,1.17h1.307v-5.045h-3.9v1.559Z"/>
          <path id="Path_25" data-name="Path 25" d="M122.305,108.958H119.76l-3.624,3.876v-3.876H114.21v9.38h1.926v-3.119l.94-.963,2.89,4.082h2.523l-4.036-5.5Z"/>
          <path id="Path_26" data-name="Path 26" d="M130.814,109.784a4.84,4.84,0,0,0-6.146,0,5.993,5.993,0,0,0,0,7.752,4.84,4.84,0,0,0,6.146,0,5.993,5.993,0,0,0,0-7.752ZM129.6,116.09a2.458,2.458,0,0,1-3.715,0,4.72,4.72,0,0,1,0-4.908,2.436,2.436,0,0,1,3.715.023,3.832,3.832,0,0,1,.688,2.431,3.9,3.9,0,0,1-.688,2.454Z"/>
          <path id="Path_27" data-name="Path 27" d="M139.483,115.517l-3.715-6.559H133.7v9.38h1.835v-6.651l3.83,6.651h1.949v-9.38h-1.835Z"/>
          <path id="Path_28" data-name="Path 28" d="M147.51,114.875h2.179a2.423,2.423,0,0,1-.78,1.491,2.367,2.367,0,0,1-1.605.573,2.611,2.611,0,0,1-1.789-.711,3.216,3.216,0,0,1-.78-2.454,3.9,3.9,0,0,1,.734-2.569,2.306,2.306,0,0,1,1.858-.849,1.757,1.757,0,0,1,1.078.206,1.818,1.818,0,0,1,1.078,1.353h1.926a3.525,3.525,0,0,0-1.238-2.27,4.384,4.384,0,0,0-2.867-.917,4.592,4.592,0,0,0-3.325,1.376,5.256,5.256,0,0,0-1.261,3.646,4.933,4.933,0,0,0,1.238,3.555,3.937,3.937,0,0,0,3.05,1.284,2.566,2.566,0,0,0,1.9-.482,4.566,4.566,0,0,0,1.009-.94l.206,1.17h1.307v-5.045h-3.9v1.559Z"/>
          <path id="Path_29" data-name="Path 29" d="M158.311,88.043a10.409,10.409,0,0,0,1.559-.688v7.109h2.752v-.527h6.4v.527h2.89V87.377c.436.206.871.39,1.33.573a10.924,10.924,0,0,1,1.766-2.225,18.414,18.414,0,0,1-5.229-2.523h4.495V80.75h-7.109V79.511a40.08,40.08,0,0,0,5.114-.894l-1.9-2.225a62.253,62.253,0,0,1-11.582,1.261,10.178,10.178,0,0,1,.688,2.339c1.537,0,3.165-.092,4.816-.206v.94h-7.109v2.454h4.541a15.287,15.287,0,0,1-5.183,2.592,12.835,12.835,0,0,1,1.789,2.247Zm10.71,3.83h-6.4v-.619h6.4Zm0-2.454h-6.4V88.8h6.4ZM164.3,83.983v2.385h2.89V84.006a17.377,17.377,0,0,0,3.578,2.729h-9.77a15.405,15.405,0,0,0,3.325-2.752Z"/>
          <path id="Path_30" data-name="Path 30" d="M171.43,114.485v-2.546a9.223,9.223,0,0,0,1.651,1.628,9.731,9.731,0,0,1,1.926-2.179,9.338,9.338,0,0,1-2.958-3.027h2.569v-2.477H171.8V104.9h2.247v-2.454H171.8v-1.789H169.09v1.789h-2.041v-1.789h-2.683v1.789h-2.018l.046-.046a13.484,13.484,0,0,0-3.348-1.72l-1.514,2.064a13.569,13.569,0,0,1,3.257,1.926l1.376-1.926V104.9h2.225v.986h-2.913v2.477h2.592a10.17,10.17,0,0,1-2.89,3.257l-1.124-.849a55.655,55.655,0,0,1-3.05,6.1l2.477,1.628c.894-1.789,1.789-3.715,2.569-5.619a11.115,11.115,0,0,1,.78.963,11.8,11.8,0,0,0,1.376-1.261v2.844c0,2.477.78,3.165,3.463,3.165h3.371c2.156,0,2.89-.711,3.211-3.257a7.682,7.682,0,0,1-2.316-.94c-.115,1.559-.275,1.812-1.124,1.812h-2.844c-1.055,0-1.215-.092-1.215-.849v-.917h4.7Zm-2.454-2.041h-2.27v-.8h2.27Zm-1.926-7.522h2.041v.986h-2.041Zm-.849,4.7a12.665,12.665,0,0,0,.6-1.261h2.523a12.387,12.387,0,0,0,.6,1.261h-3.692Z"/>
          <path id="Path_31" data-name="Path 31" d="M161.339,107.467a12.351,12.351,0,0,0-3.3-1.651l-1.491,2.087a13.157,13.157,0,0,1,3.211,1.858Z"/>
        </g>
      </g>
    </g>
  </g>
</svg>
